# xmcd
#
# Track frame offsets:
#	150
#	22762
#	38842
#	51554
#	67301
#	83001
#	98879
#	118944
#	134610
#	148907
#	159918
#	172607
#	190518
#
# Disc length: 2822 seconds
#
# Revision: 0
# Processed by: cddbd v1.5.1PL2 Copyright (c) Steve Scherf et al.
# Submitted via: dBpowerAMP V4.0
#
DISCID=af0b040d
DTITLE=Aurèle - Bain Public
DYEAR=1900
DGENRE=Chanson
TTITLE0=L'impassante
TTITLE1=Bain Public
TTITLE2=Un planeur pour Angèle
TTITLE3=L'amuse-gueule
TTITLE4=Mon théâtre
TTITLE5=Que le grand cirque me croque
TTITLE6=Chansons particulières
TTITLE7=Noé
TTITLE8=La descente
TTITLE9=Je fume
TTITLE10=Le balobo
TTITLE11=L'enfant part
TTITLE12=
EXTD=
EXTT0=
EXTT1=
EXTT2=
EXTT3=
EXTT4=
EXTT5=
EXTT6=
EXTT7=
EXTT8=
EXTT9=
EXTT10=
EXTT11=
EXTT12=
PLAYORDER=
